Coordinates
version=1
nRows=6
nColumns=34
inDegrees=yes

Units are S.I. units (second, meters, Newtons, ...)
If the header above contains a line with 'inDegrees', this indicates whether rotational values are in degrees (yes) or radians (no).

endheader
time	pelvis_tilt	pelvis_list	pelvis_rotation	pelvis_tx	pelvis_ty	pelvis_tz	hip_flexion_r	hip_adduction_r	hip_rotation_r	knee_angle_r	ankle_angle_r	subtalar_angle_r	mtp_angle_r	hip_flexion_l	hip_adduction_l	hip_rotation_l	knee_angle_l	ankle_angle_l	subtalar_angle_l	mtp_angle_l	lumbar_extension	lumbar_bending	lumbar_rotation	arm_flex_r	arm_add_r	arm_rot_r	elbow_flex_r	pro_sup_r	arm_flex_l	arm_add_l	arm_rot_l	elbow_flex_l	pro_sup_l
      3.75000000	     -4.13501502	      0.76789126	     -0.00427174	      0.84927427	      1.15418433	     -0.18129046	     -2.13993127	     -5.47234377	     -6.87112931	      0.00000000	      7.70887337	     -9.73829497	      0.00000000	      0.56063301	     -1.07877709	      3.63475459	      3.89255073	      5.92757934	    -12.49007867	      0.00000000	     -0.15341189	     -2.45675356	      0.79434938	     -8.68886925	     -6.24239931	    -14.57938735	     34.76850563	     95.24256798	     -7.87809236	     -7.92103657	     -8.91811129	     34.77605648	     99.92546888
      3.76666670	     -4.12275032	      0.78790234	     -0.03947286	      0.85700937	      1.15236534	     -0.17744163	     -2.22745757	     -5.45558741	     -6.87373507	      0.00000000	      7.63147654	     -9.74333250	      0.00000000	      0.51485456	     -1.09371379	      3.58013288	      4.02289757	      5.91153147	    -12.53406719	      0.00000000	     -0.22108282	     -2.55119784	      0.78797652	     -8.91221021	     -6.25346877	    -14.61619090	     34.63421004	     95.25213459	     -8.13984889	     -7.87233696	     -8.92105451	     34.59833432	     99.94193603
      3.78333330	     -4.21758438	      0.82463107	     -0.25877988	      0.85749143	      1.15857291	     -0.17739584	     -2.19134626	     -5.46920496	     -6.59675399	      0.00000000	      7.42135353	     -9.93864192	      0.00000000	      0.38489614	     -1.09733848	      3.32675634	      3.82311784	      5.72191191	    -12.68029764	      0.00000000	      0.51042174	     -2.56408513	      0.97128924	     -8.89767336	     -6.06610386	    -15.25080869	     33.38272372	     95.58592057	     -8.01812744	     -7.74456662	     -9.33108320	     32.85636160	    100.34903273
      3.80000000	     -4.16587025	      0.79375005	     -0.32080405	      0.85733067	      1.15511245	     -0.17740094	     -2.31638820	     -5.40270468	     -6.50580417	      0.00000000	      7.45935576	     -9.91333760	      0.00000000	      0.21185866	     -1.15910257	      3.34084323	      3.79788514	      5.77191046	    -12.69169319	      0.00000000	      0.65565236	     -2.56835975	      1.00483297	     -9.14561431	     -6.02376225	    -15.28865248	     33.32167024	     95.62440424	     -8.30998175	     -7.76582610	     -9.34473023	     32.77012183	    100.39438194
      3.81666670	     -4.13834847	      0.75834987	     -0.42623639	      0.85770811	      1.15157190	     -0.17722032	     -2.40525160	     -5.33348840	     -6.42126899	      0.00000000	      7.58333056	     -9.91416625	      0.00000000	      0.01540226	     -1.22190320	      3.29235671	      3.67675753	      5.85788229	    -12.72315192	      0.00000000	      0.84474625	     -2.54631385	      1.09363179	     -9.36092781	     -6.01517519	    -15.34881332	     33.26401499	     95.66417489	     -8.68731638	     -7.72678652	     -9.35036535	     32.64595239	    100.44401980
      3.83333330	     -4.15673135	      0.73321390	     -0.50864286	      0.85717607	      1.15515535	     -0.17733678	     -2.39861923	     -5.28924621	     -6.36249231	      0.00000000	      7.63926637	     -9.89577036	      0.00000000	     -0.04403567	     -1.27251931	      3.29113648	      3.62854500	      5.85597887	    -12.70951621	      0.00000000	      0.90234667	     -2.60141266	      1.10960776	     -9.44346650	     -6.03540259	    -15.37886407	     33.23885234	     95.67686185	     -8.79637458	     -7.72320986	     -9.35342778	     32.60956163	    100.46064693
